<svg xmlns="http://www.w3.org/2000/svg" xmlns:xlink="http://www.w3.org/1999/xlink" width="100" height="100" viewBox="0 0 100 100"><rect width="100%" height="100%" fill="#ffffff"></rect><g transform="translate(50 50) scale(0.69 0.69) rotate(0) translate(-50 -50)" style="fill:#78bee8"><svg fill="#78bee8" xmlns="http://www.w3.org/2000/svg" data-name="Retro Technology" viewBox="0 0 60 60" x="0px" y="0px"><title>Retro Technology - 053 - iMac</title><path d="M27,42h6A15,15,0,0,1,48,57v0a2,2,0,0,1-2,2H14a2,2,0,0,1-2-2v0A15,15,0,0,1,27,42Z" fill="none" stroke="#78bee8" stroke-linecap="round" stroke-linejoin="round" stroke-width="2"></path><rect x="28" y="37" width="4" height="5" fill="none" stroke="#78bee8" stroke-linecap="round" stroke-linejoin="round" stroke-width="2"></rect><rect x="1" y="1" width="58" height="36" rx="3" ry="3" fill="none" stroke="#78bee8" stroke-linecap="round" stroke-linejoin="round" stroke-width="2"></rect><rect x="16" y="-6" width="28" height="50" rx="1" ry="1" transform="translate(49 -11) rotate(90)" fill="none" stroke="#78bee8" stroke-linecap="round" stroke-linejoin="round" stroke-width="2"></rect><line x1="16" y1="55" x2="16" y2="55" fill="none" stroke="#78bee8" stroke-linecap="round" stroke-linejoin="round" stroke-width="2"></line><line x1="20" y1="55" x2="20" y2="55" fill="none" stroke="#78bee8" stroke-linecap="round" stroke-linejoin="round" stroke-width="2"></line><line x1="24" y1="55" x2="24" y2="55" fill="none" stroke="#78bee8" stroke-linecap="round" stroke-linejoin="round" stroke-width="2"></line><line x1="28" y1="55" x2="28" y2="55" fill="none" stroke="#78bee8" stroke-linecap="round" stroke-linejoin="round" stroke-width="2"></line><line x1="32" y1="55" x2="32" y2="55" fill="none" stroke="#78bee8" stroke-linecap="round" stroke-linejoin="round" stroke-width="2"></line><line x1="36" y1="55" x2="36" y2="55" fill="none" stroke="#78bee8" stroke-linecap="round" stroke-linejoin="round" stroke-width="2"></line><line x1="40" y1="55" x2="40" y2="55" fill="none" stroke="#78bee8" stroke-linecap="round" stroke-linejoin="round" stroke-width="2"></line><line x1="44" y1="55" x2="44" y2="55" fill="none" stroke="#78bee8" stroke-linecap="round" stroke-linejoin="round" stroke-width="2"></line><circle cx="30" cy="48" r="2" fill="none" stroke="#78bee8" stroke-linecap="round" stroke-linejoin="round" stroke-width="2"></circle><line x1="9" y1="9" x2="9" y2="9" fill="none" stroke="#78bee8" stroke-linecap="round" stroke-linejoin="round" stroke-width="2"></line><line x1="12" y1="9" x2="25" y2="9" fill="none" stroke="#78bee8" stroke-linecap="round" stroke-linejoin="round" stroke-width="2"></line><path d="M11,27H49a1,1,0,0,1,1,1v5a0,0,0,0,1,0,0H10a0,0,0,0,1,0,0V28a1,1,0,0,1,1-1Z" fill="none" stroke="#78bee8" stroke-linecap="round" stroke-linejoin="round" stroke-width="2"></path><line x1="14" y1="33" x2="14" y2="31" fill="none" stroke="#78bee8" stroke-linecap="round" stroke-linejoin="round" stroke-width="2"></line><line x1="18" y1="33" x2="18" y2="31" fill="none" stroke="#78bee8" stroke-linecap="round" stroke-linejoin="round" stroke-width="2"></line><line x1="22" y1="33" x2="22" y2="31" fill="none" stroke="#78bee8" stroke-linecap="round" stroke-linejoin="round" stroke-width="2"></line><line x1="26" y1="33" x2="26" y2="31" fill="none" stroke="#78bee8" stroke-linecap="round" stroke-linejoin="round" stroke-width="2"></line><line x1="30" y1="33" x2="30" y2="31" fill="none" stroke="#78bee8" stroke-linecap="round" stroke-linejoin="round" stroke-width="2"></line><line x1="34" y1="33" x2="34" y2="31" fill="none" stroke="#78bee8" stroke-linecap="round" stroke-linejoin="round" stroke-width="2"></line><line x1="38" y1="33" x2="38" y2="31" fill="none" stroke="#78bee8" stroke-linecap="round" stroke-linejoin="round" stroke-width="2"></line><line x1="42" y1="33" x2="42" y2="31" fill="none" stroke="#78bee8" stroke-linecap="round" stroke-linejoin="round" stroke-width="2"></line><line x1="46" y1="33" x2="46" y2="31" fill="none" stroke="#78bee8" stroke-linecap="round" stroke-linejoin="round" stroke-width="2"></line></svg></g></svg>